<svg width="20" height="20" viewBox="0 0 20 20" fill="none" xmlns="http://www.w3.org/2000/svg">
<path d="M14.1667 11.1667V13.6667C14.1667 17 12.8334 18.3334 9.50002 18.3334H6.33335C3.00002 18.3334 1.66669 17 1.66669 13.6667V10.5C1.66669 7.16671 3.00002 5.83337 6.33335 5.83337H8.83335" stroke="url(#paint0_linear_51_129)" stroke-width="1.5" stroke-linecap="round" stroke-linejoin="round"/>
<path d="M14.1666 11.1667H11.5C9.49998 11.1667 8.83331 10.5 8.83331 8.50004V5.83337L14.1666 11.1667Z" stroke="url(#paint1_linear_51_129)" stroke-width="1.5" stroke-linecap="round" stroke-linejoin="round"/>
<path d="M9.66669 1.66663H13" stroke="url(#paint2_linear_51_129)" stroke-width="1.5" stroke-linecap="round" stroke-linejoin="round"/>
<path d="M5.83331 4.16663C5.83331 2.78329 6.94998 1.66663 8.33331 1.66663H10.5166" stroke="url(#paint3_linear_51_129)" stroke-width="1.5" stroke-linecap="round" stroke-linejoin="round"/>
<path d="M18.3333 6.66663V11.825C18.3333 13.1166 17.2833 14.1666 15.9916 14.1666" stroke="url(#paint4_linear_51_129)" stroke-width="1.5" stroke-linecap="round" stroke-linejoin="round"/>
<path d="M18.3333 6.66663H15.8333C13.9583 6.66663 13.3333 6.04163 13.3333 4.16663V1.66663L18.3333 6.66663Z" stroke="url(#paint5_linear_51_129)" stroke-width="1.5" stroke-linecap="round" stroke-linejoin="round"/>
<defs>
<linearGradient id="paint0_linear_51_129" x1="14.1667" y1="12.1429" x2="1.66669" y2="12.1429" gradientUnits="userSpaceOnUse">
<stop stop-color="#5AC2EA"/>
<stop offset="1" stop-color="#7477F5"/>
</linearGradient>
<linearGradient id="paint1_linear_51_129" x1="14.1666" y1="8.52544" x2="8.83331" y2="8.52544" gradientUnits="userSpaceOnUse">
<stop stop-color="#5AC2EA"/>
<stop offset="1" stop-color="#7477F5"/>
</linearGradient>
<linearGradient id="paint2_linear_51_129" x1="13" y1="2.17139" x2="9.66669" y2="2.17139" gradientUnits="userSpaceOnUse">
<stop stop-color="#5AC2EA"/>
<stop offset="1" stop-color="#7477F5"/>
</linearGradient>
<linearGradient id="paint3_linear_51_129" x1="10.5166" y1="2.92853" x2="5.83331" y2="2.92853" gradientUnits="userSpaceOnUse">
<stop stop-color="#5AC2EA"/>
<stop offset="1" stop-color="#7477F5"/>
</linearGradient>
<linearGradient id="paint4_linear_51_129" x1="18.3333" y1="10.4523" x2="15.9916" y2="10.4523" gradientUnits="userSpaceOnUse">
<stop stop-color="#5AC2EA"/>
<stop offset="1" stop-color="#7477F5"/>
</linearGradient>
<linearGradient id="paint5_linear_51_129" x1="18.3333" y1="4.19044" x2="13.3333" y2="4.19044" gradientUnits="userSpaceOnUse">
<stop stop-color="#5AC2EA"/>
<stop offset="1" stop-color="#7477F5"/>
</linearGradient>
</defs>
</svg>
